<?xml version="1.0" encoding="utf-8"?>
<!-- Generator: Adobe Illustrator 27.4.0, SVG Export Plug-In . SVG Version: 6.00 Build 0)  -->
<svg version="1.1" xmlns="http://www.w3.org/2000/svg" xmlns:xlink="http://www.w3.org/1999/xlink" x="0px" y="0px"
	 viewBox="0 0 104.3 113.4" style="enable-background:new 0 0 104.3 113.4;" xml:space="preserve">
<style type="text/css">
	.st0{fill:url(#SVGID_1_);}
	
		.st1{clip-path:url(#XMLID_00000090279863313481213950000002930045823190841218_);fill:url(#SVGID_00000003080398108152892750000014392283783347325592_);}
	
		.st2{clip-path:url(#XMLID_00000090279863313481213950000002930045823190841218_);fill:url(#SVGID_00000093881660109897755840000014266320888146853778_);}
	
		.st3{opacity:0.72;clip-path:url(#XMLID_00000090279863313481213950000002930045823190841218_);fill:url(#SVGID_00000063605235984164817040000017606543647218272644_);}
	
		.st4{clip-path:url(#XMLID_00000090279863313481213950000002930045823190841218_);fill:url(#SVGID_00000061465789001988263950000002934769179872918696_);}
	.st5{clip-path:url(#XMLID_00000090279863313481213950000002930045823190841218_);fill:#55595F;}
	.st6{opacity:0.89;clip-path:url(#XMLID_00000090279863313481213950000002930045823190841218_);fill:#6B727B;}
	.st7{clip-path:url(#XMLID_00000090279863313481213950000002930045823190841218_);fill:#41484F;}
	.st8{clip-path:url(#XMLID_00000090279863313481213950000002930045823190841218_);fill:#858A91;}
	
		.st9{clip-path:url(#XMLID_00000090279863313481213950000002930045823190841218_);fill:url(#SVGID_00000093160442121081722700000006637550727901523086_);}
	.st10{opacity:0.81;clip-path:url(#XMLID_00000090279863313481213950000002930045823190841218_);fill:#BCBCBC;}
	.st11{opacity:0.79;clip-path:url(#XMLID_00000090279863313481213950000002930045823190841218_);fill:#FFFFFF;}
	.st12{filter:url(#Adobe_OpacityMaskFilter);}
	.st13{opacity:0.78;mask:url(#SVGID_00000067233027488193488180000016589841551802446748_);}
	.st14{clip-path:url(#XMLID_00000109017901915218646000000006791391407098507425_);fill:#FFFFFF;}
	.st15{opacity:0.72;clip-path:url(#XMLID_00000109017901915218646000000006791391407098507425_);fill:#FFFFFF;}
	.st16{opacity:0.89;clip-path:url(#XMLID_00000109017901915218646000000006791391407098507425_);fill:#FFFFFF;}
	.st17{opacity:0.81;clip-path:url(#XMLID_00000109017901915218646000000006791391407098507425_);fill:#FFFFFF;}
	.st18{opacity:0.79;clip-path:url(#XMLID_00000109017901915218646000000006791391407098507425_);fill:#FFFFFF;}
</style>
<g id="Warstwa_1">
</g>
<g id="Warstwa_2">
	<g>
		<g>
			<g>
				<defs>
					<path id="XMLID_00000045589733002183280980000004982313136343174559_" d="M88.5,52.9L19.7,18.2c-2.8-1.4-6.2,0.6-6.2,3.8v69.4
						c0,3.2,3.3,5.2,6.2,3.8l68.9-34.7C91.6,58.9,91.6,54.5,88.5,52.9z M38.8,76.9l14.6-20.6L38.8,35.7l39.7,21L38.8,76.9z"/>
				</defs>
				<clipPath id="XMLID_00000035519703197835837210000005305956675710563492_">
					<use xlink:href="#XMLID_00000045589733002183280980000004982313136343174559_"  style="overflow:visible;"/>
				</clipPath>
			</g>
			<g>
				<defs>
					<path id="XMLID_00000106869578402762699970000003495223140498008245_" d="M88.5,52.9L19.7,18.2c-2.8-1.4-6.2,0.6-6.2,3.8v69.4
						c0,3.2,3.3,5.2,6.2,3.8l68.9-34.7C91.6,58.9,91.6,54.5,88.5,52.9z M38.8,76.9l14.6-20.6L38.8,35.7l39.7,21L38.8,76.9z"/>
				</defs>
				
					<linearGradient id="XMLID_00000060011232757368815440000007410641502425385661_" gradientUnits="userSpaceOnUse" x1="13.4854" y1="56.6929" x2="90.8295" y2="56.6929">
					<stop  offset="0" style="stop-color:#B9B9BA"/>
					<stop  offset="3.336484e-02" style="stop-color:#BCBCBD"/>
					<stop  offset="0.3485" style="stop-color:#D7D8DB"/>
					<stop  offset="0.7286" style="stop-color:#EEEEEF"/>
					<stop  offset="0.9469" style="stop-color:#FDFDFD"/>
				</linearGradient>
				
					<use xlink:href="#XMLID_00000106869578402762699970000003495223140498008245_"  style="overflow:visible;fill:url(#XMLID_00000060011232757368815440000007410641502425385661_);"/>
				<clipPath id="XMLID_00000090258657015454809870000016019226581676979592_">
					<use xlink:href="#XMLID_00000106869578402762699970000003495223140498008245_"  style="overflow:visible;"/>
				</clipPath>
				<linearGradient id="SVGID_1_" gradientUnits="userSpaceOnUse" x1="94.8617" y1="62.5966" x2="77.6592" y2="41.2851">
					<stop  offset="0.1897" style="stop-color:#FF1119"/>
					<stop  offset="0.9229" style="stop-color:#B61119"/>
				</linearGradient>
				<polygon style="clip-path:url(#XMLID_00000090258657015454809870000016019226581676979592_);fill:url(#SVGID_1_);" points="
					72.2,43.3 85.3,60.6 90.2,62.5 96.3,60.3 92.8,50.2 75.7,43 				"/>
				
					<linearGradient id="SVGID_00000142135081443148090580000012761469282495229366_" gradientUnits="userSpaceOnUse" x1="37.5044" y1="35.004" x2="37.5044" y2="88.972">
					<stop  offset="0.4" style="stop-color:#CDCCCC;stop-opacity:0.3"/>
					<stop  offset="0.8025" style="stop-color:#FFFFFE;stop-opacity:0"/>
				</linearGradient>
				
					<polygon style="clip-path:url(#XMLID_00000090258657015454809870000016019226581676979592_);fill:url(#SVGID_00000142135081443148090580000012761469282495229366_);" points="
					21.6,26.3 53.4,56.3 38.8,76.9 22.8,80.2 				"/>
				
					<linearGradient id="SVGID_00000135650537633626381390000017912008056978953614_" gradientUnits="userSpaceOnUse" x1="16.3676" y1="29.5273" x2="15.2091" y2="102.4647">
					<stop  offset="0.2247" style="stop-color:#FFFFFF;stop-opacity:0.9"/>
					<stop  offset="1" style="stop-color:#55595F;stop-opacity:0"/>
				</linearGradient>
				
					<polygon style="opacity:0.72;clip-path:url(#XMLID_00000090258657015454809870000016019226581676979592_);fill:url(#SVGID_00000135650537633626381390000017912008056978953614_);" points="
					21.8,17 21.8,101 10,101 10,14.5 				"/>
				
					<linearGradient id="SVGID_00000045583719146795443380000011914614371770624940_" gradientUnits="userSpaceOnUse" x1="55.0354" y1="75.89" x2="87.3746" y2="53.092">
					<stop  offset="9.093104e-02" style="stop-color:#6F1119"/>
					<stop  offset="0.191" style="stop-color:#861119"/>
					<stop  offset="0.4" style="stop-color:#C01119"/>
					<stop  offset="0.4018" style="stop-color:#C11119"/>
					<stop  offset="0.5339" style="stop-color:#BE1119"/>
					<stop  offset="0.6502" style="stop-color:#B31119"/>
					<stop  offset="0.7604" style="stop-color:#A11119"/>
					<stop  offset="0.8663" style="stop-color:#881119"/>
					<stop  offset="0.9469" style="stop-color:#6F1119"/>
				</linearGradient>
				
					<polygon style="clip-path:url(#XMLID_00000090258657015454809870000016019226581676979592_);fill:url(#SVGID_00000045583719146795443380000011914614371770624940_);" points="
					44.4,72.1 57.7,85.3 87.1,61.3 72.2,53.4 				"/>
				<polygon style="clip-path:url(#XMLID_00000090258657015454809870000016019226581676979592_);fill:#55595F;" points="21.8,35 
					23.1,37 23.1,97.4 21.8,97.4 				"/>
				
					<polygon style="opacity:0.89;clip-path:url(#XMLID_00000090258657015454809870000016019226581676979592_);fill:#6B727B;" points="
					23,80.2 31.8,92.3 23,95 				"/>
				<polygon style="clip-path:url(#XMLID_00000090258657015454809870000016019226581676979592_);fill:#41484F;" points="8.8,60.6 
					21.8,77.8 21.8,86.4 3.8,62.6 				"/>
				<polygon style="clip-path:url(#XMLID_00000090258657015454809870000016019226581676979592_);fill:#858A91;" points="10.7,71.7 
					21.8,86.4 21.8,101 4.2,101 				"/>
				<path style="opacity:0.81;clip-path:url(#XMLID_00000090258657015454809870000016019226581676979592_);fill:#BCBCBC;" d="
					M11.8,50.7l10,14.9v12.8c0,0-17.5-23-17-23S11.8,50.7,11.8,50.7z"/>
				
					<polygon style="opacity:0.79;clip-path:url(#XMLID_00000090258657015454809870000016019226581676979592_);fill:#FFFFFF;" points="
					21.8,35 22.2,37 22.2,97.4 21.8,97.4 				"/>
			</g>
			<g>
				<defs>
					<path id="XMLID_00000097488270946686770180000010013637651541755318_" d="M88.5,52.9L19.7,18.2c-2.8-1.4-6.2,0.6-6.2,3.8v69.4
						c0,3.2,3.3,5.2,6.2,3.8l68.9-34.7C91.6,58.9,91.6,54.5,88.5,52.9z M38.8,76.9l14.6-20.6L38.8,35.7l39.7,21L38.8,76.9z"/>
				</defs>
				<clipPath id="XMLID_00000035527752744377787830000014777181328016730008_">
					<use xlink:href="#XMLID_00000097488270946686770180000010013637651541755318_"  style="overflow:visible;"/>
				</clipPath>
			</g>
		</g>
		<defs>
			<filter id="Adobe_OpacityMaskFilter" filterUnits="userSpaceOnUse" x="-247.1" y="-86.6" width="343.4" height="187.6">
				
					<feColorMatrix  type="matrix" values="-1 0 0 0 1  0 -1 0 0 1  0 0 -1 0 1  0 0 0 1 0" color-interpolation-filters="sRGB" result="source"/>
			</filter>
		</defs>
		
			<mask maskUnits="userSpaceOnUse" x="-247.1" y="-86.6" width="343.4" height="187.6" id="SVGID_00000122703679392334792180000009776153453473745809_">
			<g class="st12">
				
					<image style="overflow:visible;" width="83" height="83" xlink:href="A88DD999.jpg"  transform="matrix(1 0 0 1 10.811 14.9446)">
				</image>
			</g>
		</mask>
		<g style="opacity:0.78;mask:url(#SVGID_00000122703679392334792180000009776153453473745809_);">
			<g>
				<defs>
					<path id="XMLID_00000005225153631820524010000008132412613818134679_" d="M88.5,52.9L19.7,18.2c-2.8-1.4-6.2,0.6-6.2,3.8v69.4
						c0,3.2,3.3,5.2,6.2,3.8l68.9-34.7C91.6,58.9,91.6,54.5,88.5,52.9z M38.8,76.9l14.6-20.6L38.8,35.7l39.7,21L38.8,76.9z"/>
				</defs>
				<clipPath id="XMLID_00000048464053056500055640000013491068085460881068_">
					<use xlink:href="#XMLID_00000005225153631820524010000008132412613818134679_"  style="overflow:visible;"/>
				</clipPath>
			</g>
			<g>
				<defs>
					<path id="XMLID_00000177463185750116621750000013006773540714332605_" d="M88.5,52.9L19.7,18.2c-2.8-1.4-6.2,0.6-6.2,3.8v69.4
						c0,3.2,3.3,5.2,6.2,3.8l68.9-34.7C91.6,58.9,91.6,54.5,88.5,52.9z M38.8,76.9l14.6-20.6L38.8,35.7l39.7,21L38.8,76.9z"/>
				</defs>
				<use xlink:href="#XMLID_00000177463185750116621750000013006773540714332605_"  style="overflow:visible;fill:#FFFFFF;"/>
				<clipPath id="XMLID_00000118399470718929864350000000060324209047406518_">
					<use xlink:href="#XMLID_00000177463185750116621750000013006773540714332605_"  style="overflow:visible;"/>
				</clipPath>
				<polygon style="clip-path:url(#XMLID_00000118399470718929864350000000060324209047406518_);fill:#FFFFFF;" points="72.2,43.3 
					85.3,60.6 90.2,62.5 96.3,60.3 92.8,50.2 75.7,43 				"/>
				<polygon style="clip-path:url(#XMLID_00000118399470718929864350000000060324209047406518_);fill:#FFFFFF;" points="21.6,26.3 
					53.4,56.3 38.8,76.9 22.8,80.2 				"/>
				
					<polygon style="opacity:0.72;clip-path:url(#XMLID_00000118399470718929864350000000060324209047406518_);fill:#FFFFFF;" points="
					21.8,17 21.8,101 10,101 10,14.5 				"/>
				<polygon style="clip-path:url(#XMLID_00000118399470718929864350000000060324209047406518_);fill:#FFFFFF;" points="44.4,72.1 
					57.7,85.3 87.1,61.3 72.2,53.4 				"/>
				<polygon style="clip-path:url(#XMLID_00000118399470718929864350000000060324209047406518_);fill:#FFFFFF;" points="21.8,35 
					23.1,37 23.1,97.4 21.8,97.4 				"/>
				
					<polygon style="opacity:0.89;clip-path:url(#XMLID_00000118399470718929864350000000060324209047406518_);fill:#FFFFFF;" points="
					23,80.2 31.8,92.3 23,95 				"/>
				<polygon style="clip-path:url(#XMLID_00000118399470718929864350000000060324209047406518_);fill:#FFFFFF;" points="8.8,60.6 
					21.8,77.8 21.8,86.4 3.8,62.6 				"/>
				<polygon style="clip-path:url(#XMLID_00000118399470718929864350000000060324209047406518_);fill:#FFFFFF;" points="10.7,71.7 
					21.8,86.4 21.8,101 4.2,101 				"/>
				<path style="opacity:0.81;clip-path:url(#XMLID_00000118399470718929864350000000060324209047406518_);fill:#FFFFFF;" d="
					M11.8,50.7l10,14.9v12.8c0,0-17.5-23-17-23S11.8,50.7,11.8,50.7z"/>
				
					<polygon style="opacity:0.79;clip-path:url(#XMLID_00000118399470718929864350000000060324209047406518_);fill:#FFFFFF;" points="
					21.8,35 22.2,37 22.2,97.4 21.8,97.4 				"/>
			</g>
			<g>
				<defs>
					<path id="XMLID_00000062891864349634973980000005702163814212551300_" d="M88.5,52.9L19.7,18.2c-2.8-1.4-6.2,0.6-6.2,3.8v69.4
						c0,3.2,3.3,5.2,6.2,3.8l68.9-34.7C91.6,58.9,91.6,54.5,88.5,52.9z M38.8,76.9l14.6-20.6L38.8,35.7l39.7,21L38.8,76.9z"/>
				</defs>
				<clipPath id="XMLID_00000051378258707834890760000013830932389825861801_">
					<use xlink:href="#XMLID_00000062891864349634973980000005702163814212551300_"  style="overflow:visible;"/>
				</clipPath>
			</g>
		</g>
	</g>
</g>
</svg>
